<svg version="1.1" id="Layer_1" xmlns="http://www.w3.org/2000/svg" xmlns:xlink="http://www.w3.org/1999/xlink" x="0px" y="0px"
	 width="100%" viewBox="0 0 1600 1600" enable-background="new 0 0 1600 1600" xml:space="preserve">
<path fill="#FFFFFF" opacity="1.000000" stroke="none" 
	d="
M1066.000000,1601.000000 
	C710.666748,1601.000000 355.833557,1601.000000 1.000238,1601.000000 
	C1.000159,1067.666992 1.000159,534.333862 1.000079,1.000596 
	C534.332947,1.000397 1067.665894,1.000397 1600.999023,1.000199 
	C1600.999390,534.332764 1600.999390,1067.665527 1600.999756,1600.999146 
	C1422.833374,1601.000000 1244.666626,1601.000000 1066.000000,1601.000000 
M1447.709839,969.538330 
	C1468.820557,899.632324 1478.058472,828.236450 1475.222656,755.221985 
	C1472.863159,694.473511 1462.419556,635.218079 1443.309204,577.539612 
	C1409.935181,476.810730 1355.154663,389.375641 1279.552002,314.941193 
	C1231.013550,267.152649 1176.390991,227.781708 1115.651001,197.025848 
	C1016.362915,146.751083 910.998474,123.044716 799.722778,125.512375 
	C770.384521,126.162979 741.218445,128.689758 712.253479,133.267715 
	C642.226868,144.335556 575.474670,165.690674 512.602539,198.524109 
	C379.775421,267.889771 280.568909,370.040344 216.432556,505.535431 
	C173.375427,596.498352 153.586487,692.688782 155.497864,793.348755 
	C156.239426,832.401611 160.148682,871.119385 168.291870,909.292664 
	C172.649582,929.720520 178.636124,949.800903 183.893875,970.827454 
	C185.904602,977.085815 187.846481,983.367310 189.936752,989.598999 
	C210.581451,1051.146362 240.402084,1107.962158 278.300934,1160.588623 
	C280.171783,1163.186401 281.025146,1165.315552 279.885529,1168.654541 
	C256.592041,1236.904541 233.433182,1305.200439 210.263702,1373.492676 
	C206.507034,1384.565430 202.827209,1395.664185 198.904480,1407.369629 
	C200.729187,1406.876465 201.818573,1406.625977 202.880554,1406.289062 
	C284.438141,1380.412476 365.999115,1354.546387 447.528900,1328.582397 
	C450.785492,1327.545410 453.144806,1327.777344 456.220032,1329.580566 
	C476.865234,1341.686279 497.203461,1354.458984 518.563232,1365.178223 
	C617.072815,1414.614258 721.568359,1437.785645 831.819824,1435.224243 
	C895.986755,1433.733398 958.623230,1423.344116 1019.585388,1403.442627 
	C1136.708618,1365.207153 1235.618042,1299.305420 1316.610107,1206.501831 
	C1346.849365,1171.852539 1373.094727,1134.337036 1394.662720,1093.756104 
	C1406.131836,1072.176636 1416.426270,1049.903931 1426.027344,1027.421509 
	C1434.020996,1008.702881 1440.228638,989.221680 1447.709839,969.538330 
z"/>
<path fill="#00AA50" opacity="1.000000" stroke="none" 
	d="
M183.887604,970.038086 
	C178.636124,949.800903 172.649582,929.720520 168.291870,909.292664 
	C160.148682,871.119385 156.239426,832.401611 155.497864,793.348755 
	C153.586487,692.688782 173.375427,596.498352 216.432556,505.535431 
	C280.568909,370.040344 379.775421,267.889771 512.602539,198.524109 
	C575.474670,165.690674 642.226868,144.335556 712.253479,133.267715 
	C741.218445,128.689758 770.384521,126.162979 799.722778,125.512375 
	C910.998474,123.044716 1016.362915,146.751083 1115.651001,197.025848 
	C1176.390991,227.781708 1231.013550,267.152649 1279.552002,314.941193 
	C1355.154663,389.375641 1409.935181,476.810730 1443.309204,577.539612 
	C1462.419556,635.218079 1472.863159,694.473511 1475.222656,755.221985 
	C1478.058472,828.236450 1468.820557,899.632324 1446.985229,969.785400 
	C1369.192627,970.022156 1292.124634,970.011902 1214.932129,969.627991 
	C1214.411133,958.778320 1207.481812,953.272583 1199.093750,949.191711 
	C1158.444214,929.414917 1117.834595,909.550964 1076.991821,890.179688 
	C1062.762451,883.430786 1048.154907,877.273926 1033.261353,872.190613 
	C1019.282837,867.419678 1010.706604,871.450684 1001.468445,883.030273 
	C981.119934,908.536560 960.580383,933.894470 939.820557,959.066895 
	C929.573669,971.491821 919.599792,974.005798 904.726746,967.544800 
	C884.155945,958.608582 863.507507,949.694275 843.620361,939.368347 
	C754.152283,892.914185 686.940369,823.334961 635.817749,737.351746 
	C627.940613,724.103149 629.471069,714.552307 640.122864,702.995972 
	C647.907410,694.550293 655.420654,685.855286 663.125244,677.335022 
	C675.029175,664.170898 685.221375,649.929382 692.428467,633.568726 
	C696.176697,625.060120 697.281128,616.664673 694.149780,607.911011 
	C692.698547,603.854309 690.725525,599.986877 689.061035,596.003540 
	C669.775818,549.851685 650.673706,503.622070 631.078430,457.602386 
	C627.407959,448.982269 622.369202,440.773041 616.896057,433.138214 
	C610.835449,424.683807 601.849182,420.555481 591.275208,421.219788 
	C580.324402,421.907776 569.351196,422.680115 558.480774,424.118347 
	C531.525391,427.684753 508.334045,437.486694 489.383667,458.753143 
	C443.011261,510.793060 425.550598,570.900757 434.858673,639.284180 
	C439.739655,675.142944 453.039093,708.271240 469.525543,740.222351 
	C482.229675,764.843262 498.241241,787.326782 513.870178,810.127869 
	C549.860596,862.634094 589.808655,911.752258 635.224121,956.388855 
	C639.464966,960.556946 643.631775,964.800293 647.429199,969.070374 
	C644.572266,969.421326 642.119202,969.963135 639.666016,969.963989 
	C487.739868,970.016846 335.813751,970.025391 183.887604,970.038086 
z"/>
<path fill="#00984D" opacity="1.000000" stroke="none" 
	d="
M1215.056641,970.001648 
	C1292.124634,970.011902 1369.192627,970.022156 1446.744019,970.055298 
	C1440.228638,989.221680 1434.020996,1008.702881 1426.027344,1027.421509 
	C1416.426270,1049.903931 1406.131836,1072.176636 1394.662720,1093.756104 
	C1373.094727,1134.337036 1346.849365,1171.852539 1316.610107,1206.501831 
	C1235.618042,1299.305420 1136.708618,1365.207153 1019.585388,1403.442627 
	C958.623230,1423.344116 895.986755,1433.733398 831.819824,1435.224243 
	C721.568359,1437.785645 617.072815,1414.614258 518.563232,1365.178223 
	C497.203461,1354.458984 476.865234,1341.686279 456.220032,1329.580566 
	C453.144806,1327.777344 450.785492,1327.545410 447.528900,1328.582397 
	C365.999115,1354.546387 284.438141,1380.412476 202.880554,1406.289062 
	C201.818573,1406.625977 200.729187,1406.876465 198.904480,1407.369629 
	C202.827209,1395.664185 206.507034,1384.565430 210.263702,1373.492676 
	C233.433182,1305.200439 256.592041,1236.904541 279.885529,1168.654541 
	C281.025146,1165.315552 280.171783,1163.186401 278.300934,1160.588623 
	C240.402084,1107.962158 210.581451,1051.146362 189.936752,989.598999 
	C187.846481,983.367310 185.904602,977.085815 183.890747,970.432739 
	C335.813751,970.025391 487.739868,970.016846 639.666016,969.963989 
	C642.119202,969.963135 644.572266,969.421326 647.617188,969.362366 
	C649.773621,970.756409 651.411621,971.834106 652.891357,973.097229 
	C666.202454,984.459045 679.208740,996.197266 692.831116,1007.171326 
	C728.335999,1035.773804 766.225159,1060.823853 807.701111,1079.903931 
	C856.990295,1102.578125 908.025879,1120.812134 960.136475,1135.781128 
	C979.073425,1141.220825 998.653687,1144.847412 1018.173035,1147.720581 
	C1040.378540,1150.989014 1061.972046,1144.173584 1083.090942,1139.020996 
	C1119.503906,1130.136963 1150.531494,1110.392700 1177.672485,1084.677246 
	C1190.865356,1072.177490 1199.908447,1057.157715 1204.951660,1039.557373 
	C1211.474854,1016.791199 1215.621826,993.759338 1215.056641,970.001648 
z"/>
<path fill="#FFFFFF" opacity="1.000000" stroke="none" 
	d="
M1214.932129,969.627991 
	C1215.621826,993.759338 1211.474854,1016.791199 1204.951660,1039.557373 
	C1199.908447,1057.157715 1190.865356,1072.177490 1177.672485,1084.677246 
	C1150.531494,1110.392700 1119.503906,1130.136963 1083.090942,1139.020996 
	C1061.972046,1144.173584 1040.378540,1150.989014 1018.173035,1147.720581 
	C998.653687,1144.847412 979.073425,1141.220825 960.136475,1135.781128 
	C908.025879,1120.812134 856.990295,1102.578125 807.701111,1079.903931 
	C766.225159,1060.823853 728.335999,1035.773804 692.831116,1007.171326 
	C679.208740,996.197266 666.202454,984.459045 652.891357,973.097229 
	C651.411621,971.834106 649.773621,970.756409 648.020996,969.300720 
	C643.631775,964.800293 639.464966,960.556946 635.224121,956.388855 
	C589.808655,911.752258 549.860596,862.634094 513.870178,810.127869 
	C498.241241,787.326782 482.229675,764.843262 469.525543,740.222351 
	C453.039093,708.271240 439.739655,675.142944 434.858673,639.284180 
	C425.550598,570.900757 443.011261,510.793060 489.383667,458.753143 
	C508.334045,437.486694 531.525391,427.684753 558.480774,424.118347 
	C569.351196,422.680115 580.324402,421.907776 591.275208,421.219788 
	C601.849182,420.555481 610.835449,424.683807 616.896057,433.138214 
	C622.369202,440.773041 627.407959,448.982269 631.078430,457.602386 
	C650.673706,503.622070 669.775818,549.851685 689.061035,596.003540 
	C690.725525,599.986877 692.698547,603.854309 694.149780,607.911011 
	C697.281128,616.664673 696.176697,625.060120 692.428467,633.568726 
	C685.221375,649.929382 675.029175,664.170898 663.125244,677.335022 
	C655.420654,685.855286 647.907410,694.550293 640.122864,702.995972 
	C629.471069,714.552307 627.940613,724.103149 635.817749,737.351746 
	C686.940369,823.334961 754.152283,892.914185 843.620361,939.368347 
	C863.507507,949.694275 884.155945,958.608582 904.726746,967.544800 
	C919.599792,974.005798 929.573669,971.491821 939.820557,959.066895 
	C960.580383,933.894470 981.119934,908.536560 1001.468445,883.030273 
	C1010.706604,871.450684 1019.282837,867.419678 1033.261353,872.190613 
	C1048.154907,877.273926 1062.762451,883.430786 1076.991821,890.179688 
	C1117.834595,909.550964 1158.444214,929.414917 1199.093750,949.191711 
	C1207.481812,953.272583 1214.411133,958.778320 1214.932129,969.627991 
z"/>
</svg>